<?xml version="1.0" encoding="utf-8"?>
<!-- Generator: Adobe Illustrator 21.1.0, SVG Export Plug-In . SVG Version: 6.00 Build 0)  -->
<svg version="1.1" id="Layer_1" xmlns="http://www.w3.org/2000/svg" xmlns:xlink="http://www.w3.org/1999/xlink" x="0px" y="0px"
	 viewBox="0 0 512 512" style="enable-background:new 0 0 512 512;" xml:space="preserve">
<style type="text/css">
	.st0{fill:#C4E3CB;}
	.st1{fill:#616161;}
	.st2{fill:#F4D3AB;}
	.st3{fill:#EAC198;}
	.st4{fill:#231D1C;}
	.st5{fill:#1E1918;}
	.st6{fill:#FFFFFF;}
	.st7{fill:#8AAE92;}
	.st8{fill:#F4F9F4;}
</style>
<path class="st0" d="M256,317.8L67.5,361.3c-24,5.5-41.1,26.9-41.1,51.6v81.5c0,9.8,7.9,17.7,17.7,17.7h423.7
	c9.8,0,17.7-7.9,17.7-17.7v-81.5c0-24.7-17-46.1-41.1-51.6L256,317.8z"/>
<g>
	<g>
		<path class="st1" d="M256.5,607.5c3.3,0,31.5-28.5,31.5-35.2c0-6.7-21.9-142.6-21.9-142.6l17-40.2c0,0,4-8.9-4-8.9h-44.9
			c-7.9,0-5.3,8.9-5.3,8.9l18,40.2c0,0-21.9,135.1-21.9,142.6C225,579.8,253.2,607.5,256.5,607.5z"/>
	</g>
</g>
<rect x="185.4" y="282.5" class="st2" width="141.2" height="97.1"/>
<path class="st3" d="M185.4,282.5v72.1c83.5,10.9,141.2-63.2,141.2-63.2v-8.8L185.4,282.5L185.4,282.5z"/>
<path class="st2" d="M361.9,159.3v-53.4H150.1v130.6c0,17.7,8.2,34.2,21.8,44.1l39.2,28.3c8,5.8,17.5,8.9,27.1,8.9h35.6
	c9.7,0,19.1-3.1,27.1-8.9l39.2-28.3c13.6-9.8,21.8-26.4,21.8-44.1v-16.2c10.1-2,17.7-10.9,17.7-21.6V181
	C379.6,170.3,372,161.4,361.9,159.3z"/>
<path class="st3" d="M204.5,147.2c29.3,5.1,81.8,11.7,157.4,11.7v-53H150.1v53.4c-10.1,2-17.7,10.9-17.7,21.6v17.7
	c0,10.7,7.6,19.6,17.7,21.6v16.2c0,17.7,8.2,34.2,21.8,44.1l39.2,28.3c8,5.8,17.5,8.9,27.1,8.9h9c-12.9,0-35.2-32.9-46.3-50.7
	c-4.4-7-6.7-15.1-6.7-23.4v-87.9C194.2,150.4,199.1,146.2,204.5,147.2z"/>
<path class="st4" d="M247.2,0c-61.8,0-70.6,26.5-70.6,26.5c-35.3,0-53,8.8-53,44.1c0,23.7,8.8,97.1,8.8,97.1l17.7,8.8l16.5-61.8
	c0,0,80.6,26.5,186.6,26.5l8.8,35.3l17.7-8.8c0,0,8.8-53,8.8-88.3C388.4,26.5,317.8,0,247.2,0z"/>
<path class="st5" d="M176.6,26.5c-35.3,0-53,8.8-53,44.1c0,23.7,8.8,97.1,8.8,97.1l17.7,8.8l16.5-61.8c0,0,80.6,26.5,186.6,26.5
	C229.5,114.8,176.6,53,176.6,26.5z"/>
<path class="st3" d="M256,279.1c-9,0-17.7-1.7-25.2-4.8c-3.7-1.6-5.4-5.6-3.7-9c1.7-3.4,6.1-4.9,9.8-3.4c11.2,4.7,27,4.7,38.2,0
	c3.7-1.6,8.1,0,9.8,3.4c1.7,3.4,0,7.4-3.7,9C273.7,277.4,265,279.1,256,279.1z"/>
<path class="st5" d="M241.3,168c2.6,1.6,3.3,4.3,1.6,6.1c-1.7,1.8-5.3,2-7.9,0.4c-7.9-4.7-20-7.4-29.2-6.5c-3.1,0.3-6.2-1.3-7-3.7
	c-0.8-2.4,1-4.6,4-4.9c6.1-0.6,13-0.2,19.9,1.4C229.6,162.3,236,164.8,241.3,168z"/>
<path class="st5" d="M289.8,160.5c6.9-1.5,13.8-2,19.9-1.4c3,0.3,4.9,2.5,4,4.9c-0.8,2.4-4,4.1-7,3.7c-9.2-1-21.3,1.7-29.2,6.5
	c-2.6,1.6-6.2,1.4-7.9-0.4c-1.8-1.8-1-4.6,1.6-6.1C276.5,164.5,282.9,162,289.8,160.5z"/>
<path class="st6" d="M229.5,203h-35.3c-4.9,0-8.8-2-8.8-4.5v-9c0-2.5,4-4.5,8.8-4.5h35.3c4.9,0,8.8,2,8.8,4.5v9
	C238.3,201,234.4,203,229.5,203z"/>
<path class="st4" d="M211.9,203L211.9,203c-4.9,0-8.8-2.7-8.8-6v-6c0-3.3,4-6,8.8-6l0,0c4.9,0,8.8,2.7,8.8,6v6
	C220.7,200.3,216.7,203,211.9,203z"/>
<path class="st6" d="M282.5,203h35.3c4.9,0,8.8-2,8.8-4.5v-9c0-2.5-4-4.5-8.8-4.5h-35.3c-4.9,0-8.8,2-8.8,4.5v9
	C273.7,201,277.6,203,282.5,203z"/>
<path class="st4" d="M300.1,203L300.1,203c-4.9,0-8.8-2.7-8.8-6v-6c0-3.3,4-6,8.8-6l0,0c4.9,0,8.8,2.7,8.8,6v6
	C309,200.3,305,203,300.1,203z"/>
<g>
	<path class="st7" d="M95.6,431l-54.5-54.5c-9.1,9.6-14.6,22.4-14.6,36.3v81.5c0,9.8,7.9,17.7,17.7,17.7h61.8v-56
		C105.9,446.6,102.2,437.7,95.6,431z"/>
	<path class="st7" d="M416.4,431l54.5-54.5c9.1,9.6,14.7,22.4,14.7,36.3v81.5c0,9.8-7.9,17.7-17.7,17.7h-61.8v-56
		C406.1,446.6,409.8,437.7,416.4,431z"/>
</g>
<g>
	<path class="st8" d="M185.4,309l70.6,70.6c0,0-28.8,7.2-53.9,34.6c-3.7,4-10.3,2.8-12.2-2.3c-7.5-20.7-22.8-62.6-28.6-78.7
		c-1.4-3.8,0-8.1,3.4-10.4L185.4,309z"/>
	<path class="st8" d="M326.6,309L256,379.6c0,0,28.8,7.2,53.9,34.6c3.7,4,10.3,2.8,12.2-2.3c7.5-20.7,22.8-62.6,28.6-78.7
		c1.4-3.8,0-8.1-3.4-10.4L326.6,309z"/>
</g>
<g>
	<circle class="st7" cx="313.3" cy="397.4" r="8.8"/>
	<circle class="st7" cx="198.6" cy="396.9" r="8.8"/>
</g>
</svg>
