<?xml version='1.0' encoding='utf-8'?>
<svg xmlns="http://www.w3.org/2000/svg" width="117.8763mm" height="115.49775mm" viewBox="0 0 417.67192 409.24399" id="svg4868" version="1.1"> <defs id="defs4870"/> <metadata id="metadata4873"> </metadata> <g id="layer4" style="display:inline" transform="translate(117.04024,-681.22587)"> <path style="opacity:1;fill:#805217;fill-opacity:1;stroke:none;stroke-width:1;stroke-linejoin:miter;stroke-miterlimit:10;stroke-dasharray:none;stroke-opacity:1" d="m -15.984909,798.28629 c -20.859335,54.41136 -65.622257,39.54161 -65.622257,39.54161 21.794714,34.51406 87.3393748,54.26991 126.196648,6.73049 7.939429,-0.99243 8.841126,-33.08175 5.889177,-37.01768 -12.904316,-17.20576 -47.2385809,-9.25442 -66.463568,-9.25442 z" id="path5711"/> <path style="opacity:1;fill:#42241b;fill-opacity:1;stroke:none;stroke-width:1;stroke-linejoin:miter;stroke-miterlimit:10;stroke-dasharray:none;stroke-opacity:1" d="m 206.12119,961.50062 c 0.62656,13.31809 -4.5261,25.03711 -10.09573,36.17637 -11.29995,22.59991 -10.09573,28.55021 -10.09573,48.79601 0,10.1943 -20.55373,-5.8915 -31.96982,-21.8741 -28.94588,-40.52419 14.17425,-104.88401 52.16128,-63.09828 z" id="path5709"/> <path style="opacity:1;fill:#3e1c07;fill-opacity:1;stroke:none;stroke-width:1;stroke-linejoin:miter;stroke-miterlimit:10;stroke-dasharray:none;stroke-opacity:1" d="m -69.008018,755.50875 c 25.585397,46.0572 61.7419013,-4.64229 94.588576,3.56938 9.726628,2.43166 16.475993,35.28002 8.328554,43.42746 -21.851364,21.85136 -71.758663,29.25009 -92.803886,1.18979 -10.163047,-13.55073 -8.125008,-32.28075 -10.113244,-48.18663 z" id="path5707"/> <path style="opacity:1;fill:#844e16;fill-opacity:1;stroke:none;stroke-width:1;stroke-linejoin:miter;stroke-miterlimit:10;stroke-dasharray:none;stroke-opacity:1" d="m 77.336572,762.05261 c -65.64214,-43.03629 -40.138756,11.15578 -80.9059523,-24.98566 -6.9200057,21.5212 15.6676653,34.5522 32.1244223,45.21215 12.45204,8.30136 71.434373,-8.90007 48.78153,-20.22649 z" id="path5705"/> <path style="opacity:1;fill:#853e0a;fill-opacity:1;stroke:none;stroke-width:1;stroke-linejoin:miter;stroke-miterlimit:10;stroke-dasharray:none;stroke-opacity:1" d="m 64.066482,805.90237 c 10.735456,-5.3105 13.074792,-13.93108 13.074792,-25.49584 0,-14.32328 -49.462733,-21.89496 -61.451523,-15.68976 -53.683335,27.78562 -3.138794,84.51283 27.457063,54.91413 5.202918,-5.20291 13.668882,-12.82218 20.919668,-13.72853 z" id="path5475"/> <path style="opacity:1;fill:#1f0904;fill-opacity:1;stroke:none;stroke-width:1;stroke-linejoin:miter;stroke-miterlimit:10;stroke-dasharray:none;stroke-opacity:1" d="m 45.761773,803.28741 c -0.01179,-10.14027 -4.868033,-17.65097 -14.382272,-17.65097 -25.2102858,0 -17.650969,5.1381 -17.650969,23.53463 0,7.0999 2.256278,14.17112 5.883656,19.61219 0.871653,1.30748 5.493833,2.61496 3.922438,2.61496 -1.080373,0 12.849901,-13.10721 22.227147,-28.11081 z" id="path5473"/> <path style="opacity:1;fill:#5b3123;fill-opacity:1;stroke:none;stroke-width:1;stroke-linejoin:miter;stroke-miterlimit:10;stroke-dasharray:none;stroke-opacity:1" d="m 106.4502,1005.2887 c 4.50096,9.0549 -8.950823,43.8514 -12.303286,42.2592 6.367726,-17.7154 -7.71073,-27.0115 -9.628661,-39.5845 -0.969061,-7.4295 4.50557,-15.79366 7.221496,-22.73436 0.977336,-2.49764 0.345507,-9.74998 2.139702,-7.75643 7.237509,8.04168 9.674849,18.16313 12.570749,27.81609 z" id="path5703"/> <path style="opacity:1;fill:#6f3f1c;fill-opacity:1;stroke:none;stroke-width:1;stroke-linejoin:miter;stroke-miterlimit:10;stroke-dasharray:none;stroke-opacity:1" d="m 148.65207,982.76429 c -2.99361,5.86496 3.65399,21.14201 -2.51007,22.79461 -17.37637,4.6588 -17.7856,30.0384 -17.7856,30.0384 -10.5508,-4.3445 -14.07858,-73.3792 5.54394,-80.82348 1.78708,0 13.80868,24.21826 14.75173,27.99047 z" id="path5701"/> <path style="opacity:1;fill:#441a0f;fill-opacity:1;stroke:none;stroke-width:1;stroke-linejoin:miter;stroke-miterlimit:10;stroke-dasharray:none;stroke-opacity:1" d="m 135.60365,967.57649 c 3.54202,21.17223 -12.01692,37.63661 -16.85016,56.96961 -2.41456,9.6582 4.81433,17.6639 4.81433,25.4089 -14.12826,-10.1556 -26.630851,-53.88806 -23.0018,-66.5982 3.40427,-10.21281 10.91316,-19.65937 17.65255,-28.0836 2.83708,-3.54635 3.74044,-10.15955 6.68657,-13.10568 0.61231,-0.61231 2.05,2.01156 2.1397,2.1397 7.38327,10.54753 7.20766,12.46008 8.55881,23.26927 z" id="path5699"/> <path style="opacity:1;fill:#5f3211;fill-opacity:1;stroke:none;stroke-width:1;stroke-linejoin:miter;stroke-miterlimit:10;stroke-dasharray:none;stroke-opacity:1" d="m 154.59351,978.54247 c 3.84893,13.89135 6.40061,25.28763 -11.5009,46.27113 -6.11574,7.1686 5.61672,30.2232 5.61672,30.2232 -33.4655,-23.3627 1.34304,-99.53974 5.88418,-76.49433 z" id="path5697"/> <path style="opacity:1;fill:#b06320;fill-opacity:1;stroke:none;stroke-width:1;stroke-linejoin:miter;stroke-miterlimit:10;stroke-dasharray:none;stroke-opacity:1" d="m 17.652546,940.56274 c -2.565253,7.4844 -1.7913,14.41835 0.534926,21.39703 2.826454,8.47936 13.834325,31.09943 5.884182,39.04953 -1.539041,1.5391 3.402506,-2.77106 5.349257,-3.74444 13.944023,-6.97201 19.257323,-13.89976 19.257323,-29.95583 0,-11.33913 -11.45799,-54.56242 -19.792249,-54.56242 -0.769301,0 -1.779167,6.58762 -2.139703,7.48896 -2.768527,6.92132 -6.033127,14.97111 -9.093736,20.32717 z" id="path5695"/> <path style="opacity:1;fill:#8c3e09;fill-opacity:1;stroke:none;stroke-width:1;stroke-linejoin:miter;stroke-miterlimit:10;stroke-dasharray:none;stroke-opacity:1" d="m 28.885985,844.81105 c -2.624848,-0.30533 -5.465323,-1.06985 -8.023885,-1.06985 -32.125419,-4.61786 -46.981417,44.06572 -59.376747,52.42271 31.8914179,0 65.386724,4.02782 81.308699,-27.81613 0.482771,-0.96554 8.07621,-15.99544 4.279405,-19.79225 -3.525702,-3.5257 -14.081793,-0.32308 -18.187472,-3.74448 z" id="path5693"/> <path style="opacity:1;fill:#a8531d;fill-opacity:1;stroke:none;stroke-width:1;stroke-linejoin:miter;stroke-miterlimit:10;stroke-dasharray:none;stroke-opacity:1" d="m 19.792249,866.743 c -43.779091,36.15655 -15.0099237,69.01026 -31.025688,98.42632 12.4439876,-8.29599 42.953966,-8.87863 50.283011,-23.53672 8.425071,-16.85014 16.609983,-59.88439 0,-76.49437 -2.980583,-2.98059 -15.66661,1.15594 -19.257323,1.60477 z" id="path5689"/> <path style="opacity:1;fill:#b77428;fill-opacity:1;stroke:none;stroke-width:1;stroke-linejoin:miter;stroke-miterlimit:10;stroke-dasharray:none;stroke-opacity:1" d="m 55.602684,987.68153 c -3.296442,24.70817 29.476513,34.78807 34.04246,49.92897 0.189125,0.5739 -5.794834,-14.1313 -1.891247,-21.9385 11.078022,-22.15605 25.822243,-29.30093 10.590987,-59.76343 -1.468208,-2.93642 -15.395378,-15.72368 -15.508232,-15.50823 -5.322649,10.16142 -8.773257,21.33836 -14.751732,30.63821 -3.327612,5.17629 -10.418549,15.5416 -12.482236,16.64298 z" id="path5687"/> <path style="opacity:1;fill:#9a4a12;fill-opacity:1;stroke:none;stroke-width:1;stroke-linejoin:miter;stroke-miterlimit:10;stroke-dasharray:none;stroke-opacity:1" d="m 84.349651,943.80458 c -0.350211,30.73589 20.345659,22.31673 20.803729,54.84619 21.31435,-8.82136 33.76558,-29.58503 28.74696,-52.57669 -2.16855,-8.67422 -13.0926,-10.09336 -20.42547,-12.86048 -23.965066,-9.04342 -42.581351,8.14441 -29.125219,10.59098 z" id="path5685"/> <path style="opacity:1;fill:#db9342;fill-opacity:1;stroke:none;stroke-width:1;stroke-linejoin:miter;stroke-miterlimit:10;stroke-dasharray:none;stroke-opacity:1" d="m 41.9857,1011.133 c 53.081679,-12.11918 61.01101,-145.36066 -1.134748,-83.2149 -10.077318,10.07732 3.467351,50.87476 6.430242,59.76343 2.325812,6.97744 -3.977938,22.20747 -5.295494,23.45147 z" id="path5683"/> <path style="opacity:1;fill:#c77b30;fill-opacity:1;stroke:none;stroke-width:1;stroke-linejoin:miter;stroke-miterlimit:10;stroke-dasharray:none;stroke-opacity:1" d="m 42.245781,975.91746 c -1.367244,-46.12949 18.350298,-55.17367 19.781755,-72.75663 0,-0.37208 -6.546297,-1.88893 -6.705679,-1.67642 -24.30699,16.57546 -26.758077,42.80378 -13.076076,74.43305 z" id="path5681"/> <path style="opacity:1;fill:#ce6a19;fill-opacity:1;stroke:none;stroke-width:1;stroke-linejoin:miter;stroke-miterlimit:10;stroke-dasharray:none;stroke-opacity:1" d="m 73.091908,960.49439 c 18.061067,-8.64967 41.832752,-58.53864 19.111186,-74.76832 -16.488231,-11.77731 -42.581065,-1.79569 -42.581065,19.44647 0,16.06916 13.551138,20.06131 19.781755,32.52254 3.167953,6.33591 2.92023,20.7516 3.688124,22.79931 z" id="path5679"/> <path style="opacity:1;fill:#a65311;fill-opacity:1;stroke:none;stroke-width:1;stroke-linejoin:miter;stroke-miterlimit:10;stroke-dasharray:none;stroke-opacity:1" d="m 50.735457,901.57832 c -13.967716,15.51043 -24.322217,38.77767 -24.182321,60.69289 -9.232798,-27.82028 -9.542419,-66.73175 9.957427,-87.24602 6.822497,-6.8225 16.948609,21.78663 14.224894,26.55313 z" id="path5677"/> <path style="opacity:1;fill:#b46314;fill-opacity:1;stroke:none;stroke-width:1;stroke-linejoin:miter;stroke-miterlimit:10;stroke-dasharray:none;stroke-opacity:1" d="m 20.452323,879.69096 c 9.731961,-17.74701 31.516694,-15.45236 31.516694,-42.91635 0,-5.32306 0.962424,-12.49237 -1.341136,-17.09949 -42.4023838,-28.27355 -55.3080386,39.90657 -30.175558,60.01584 z" id="path5675"/> <path style="opacity:1;fill:#96421a;fill-opacity:1;stroke:none;stroke-width:1;stroke-linejoin:miter;stroke-miterlimit:10;stroke-dasharray:none;stroke-opacity:1" d="m 57.847904,918.6482 c -30.805381,-14.4844 -26.596421,-60.59121 17.069874,-48.36465 2.600806,0.72823 7.58661,0.14415 7.58661,2.84498 0,17.78289 -39.98023,36.76324 -24.656484,45.51967 z" id="path5671"/> <path style="opacity:1;fill:#b2530f;fill-opacity:1;stroke:none;stroke-width:1;stroke-linejoin:miter;stroke-miterlimit:10;stroke-dasharray:none;stroke-opacity:1" d="m 74.917778,864.5936 c -2.640701,14.57338 -9.23108,14.27533 -21.337342,11.85408 -4.586121,-0.91723 -14.672896,-1.19849 -18.0182,0.47416 -3.336408,1.6682 -9.0091,10.3685 -9.0091,6.63828 0,-20.21275 24.9659,-48.42652 45.993826,-52.63211 4.9692,-0.99384 11.58988,-4.53166 15.173221,-0.94832 10.525079,10.52508 -6.458766,30.08274 -12.802405,34.61391 z" id="path5669"/> <path style="opacity:1;fill:#8e3d0d;fill-opacity:1;stroke:none;stroke-width:1;stroke-linejoin:miter;stroke-miterlimit:10;stroke-dasharray:none;stroke-opacity:1" d="m 52.63211,805.79737 c -5.932838,4.47461 -14.112526,8.69668 -15.173221,16.12154 -2.114558,14.80191 -1.914504,20.39794 -15.173221,27.0273 -1.280143,0.64007 2.909672,0.0216 4.267468,0.47417 8.823949,2.94131 18.26254,2.37081 28.449789,2.37081 15.572726,0 27.270406,-21.85167 29.398116,-36.0364 0.779204,-5.19469 5.171327,-21.12249 -0.948326,-24.18232 -8.779708,-4.38985 -21.059224,14.2249 -30.820605,14.2249 z" id="path5667"/> <path style="opacity:1;fill:#f8b753;fill-opacity:1;stroke:none;stroke-width:1;stroke-linejoin:miter;stroke-miterlimit:10;stroke-dasharray:none;stroke-opacity:1" d="M 55.477089,886.4051 C 132.65207,929.23336 150.12386,804.23073 87.24602,835.66964 68.513215,845.03605 69.3623,876.48709 55.477089,886.4051 Z" id="path5665"/> <path style="opacity:1;fill:#dfa84c;fill-opacity:1;stroke:none;stroke-width:1;stroke-linejoin:miter;stroke-miterlimit:10;stroke-dasharray:none;stroke-opacity:1" d="m 95.010017,919.45963 c 28.279673,45.64011 28.366323,-9.14713 13.095223,-6.96554 -6.43692,0.91956 -8.568211,5.26791 -13.095223,6.96554 z" id="path5663"/> <path style="opacity:1;fill:#c0731c;fill-opacity:1;stroke:none;stroke-width:1;stroke-linejoin:miter;stroke-miterlimit:10;stroke-dasharray:none;stroke-opacity:1" d="m 86.372743,912.49409 c 2.324786,3.42945 4.005121,7.06996 6.965544,10.03038 2.921463,2.92146 27.588533,-5.28883 16.995923,-15.88144 -6.79348,-6.79348 -25.884733,-1.04677 -22.568358,7.24416" id="path5661"/> <path style="opacity:1;fill:#e9a84c;fill-opacity:1;stroke:none;stroke-width:1;stroke-linejoin:miter;stroke-miterlimit:10;stroke-dasharray:none;stroke-opacity:1" d="m 84.422391,910.26511 c 12.784715,-4.77521 35.727669,-3.4048 40.957399,-12.8166 1.0852,-2.1704 0.65553,-8.0719 -0.27862,-9.47314 -5.79974,-8.6996 -10.12214,-2.58653 -20.33939,0.55724 -12.370725,3.80638 -30.976239,3.11801 -20.339389,21.7325 z" id="path5659"/> <path style="opacity:1;fill:#da9b3d;fill-opacity:1;stroke:none;stroke-width:1;stroke-linejoin:miter;stroke-miterlimit:10;stroke-dasharray:none;stroke-opacity:1" d="m 100.30383,908.872 c 13.9981,-25.27247 76.94605,4.96875 52.93813,28.97666 -8.23162,8.23163 -22.07214,12.40046 -30.64839,5.57244 -16.61517,-13.22825 -2.9852,-25.82651 -22.28974,-34.5491 z" id="path5657"/> <path style="opacity:1;fill:#4c240c;fill-opacity:1;stroke:none;stroke-width:1;stroke-linejoin:miter;stroke-miterlimit:10;stroke-dasharray:none;stroke-opacity:1" d="m 182.21863,980.4778 c -1.69564,29.5133 15.28266,12.87778 22.56836,39.2857 3.23584,-19.4933 2.42018,-44.00466 -10.58763,-51.26644 -0.55054,-0.28976 -4.81473,-2.88644 -5.57243,-2.50759 -2.23675,1.11837 -5.03036,12.5592 -6.4083,14.48833 z" id="path5655"/> <path style="opacity:1;fill:#7e4e19;fill-opacity:1;stroke:none;stroke-width:1;stroke-linejoin:miter;stroke-miterlimit:10;stroke-dasharray:none;stroke-opacity:1" d="m 165.2227,986.05023 c 10.92817,-2.45075 15.39664,18.70387 15.04557,18.11037 13.77217,-24.23997 2.22425,-80.66035 -13.65246,-30.09111 -1.18481,4.14682 -1.82941,8.49034 -1.39311,11.98074 z" id="path5650"/> <path style="opacity:1;fill:#ad5d16;fill-opacity:1;stroke:none;stroke-width:1;stroke-linejoin:miter;stroke-miterlimit:10;stroke-dasharray:none;stroke-opacity:1" d="m 179.16854,1017.2539 c -2.54425,-22.41289 -22.67367,-64.74987 -36.92347,-79.55462 -3.0537,-3.05369 -33.96819,7.32349 -20.88363,33.49261 12.59927,25.19853 42.64119,0.56424 57.8071,46.06201 z" id="path5646"/> <path style="opacity:1;fill:#804b20;fill-opacity:1;stroke:none;stroke-width:1;stroke-linejoin:miter;stroke-miterlimit:10;stroke-dasharray:none;stroke-opacity:1" d="m 220.05758,1017.0589 c 2.94904,-12.5298 10.94849,-27.82929 6.74053,-44.66114 -3.87993,-15.5197 -35.32987,-25.24124 -38.17118,-16.7173 17.20373,50.31254 36.83024,37.30445 31.43065,61.37844 z" id="path5644"/> <path style="opacity:1;fill:#3a0800;fill-opacity:1;stroke:none;stroke-width:1;stroke-linejoin:miter;stroke-miterlimit:10;stroke-dasharray:none;stroke-opacity:1" d="m 149.73165,956.61275 c 25.24922,56.32125 31.72512,-7.84076 52.60309,28.56723 3.80061,-7.60121 -15.7905,-32.1135 -21.8687,-32.1135 -10.72762,0 -20.41894,3.54627 -30.73439,3.54627 z" id="path5642"/> <path style="opacity:1;fill:#b57c34;fill-opacity:1;stroke:none;stroke-width:1;stroke-linejoin:miter;stroke-miterlimit:10;stroke-dasharray:none;stroke-opacity:1" d="m 234.05421,930.2127 c 27.8472,29.44091 -4.95519,60.04281 -5.1224,92.9912 -15.9856,-91.83487 -28.60396,-11.6882 -25.21796,-110.32855 4.38317,-2.19158 25.82826,14.759 30.34036,17.33735 z" id="path5640"/> <path style="opacity:1;fill:#bc701a;fill-opacity:1;stroke:none;stroke-width:1;stroke-linejoin:miter;stroke-miterlimit:10;stroke-dasharray:none;stroke-opacity:1" d="m 211.36402,891.58102 c -4.41236,16.17571 -6.20621,42.63411 17.34269,42.63411 8.59745,0 17.08017,14.09094 17.704,14.09094 0.84029,0 -2.05211,-19.12005 -2.52914,-20.23314 -8.61304,-20.09709 -12.80912,-29.10125 -32.51755,-36.49191 z" id="path5638"/> <path style="opacity:1;fill:#aa6318;fill-opacity:1;stroke:none;stroke-width:1;stroke-linejoin:miter;stroke-miterlimit:10;stroke-dasharray:none;stroke-opacity:1" d="m 235.93283,885.07752 c 8.83692,1.95677 12.28441,14.10526 12.28441,22.40097 0,4.33094 -0.16832,11.67062 2.16784,15.17485 1.97148,2.95723 6.61074,4.02332 5.05828,5.05829 -16.27347,10.84898 -45.63825,-31.92887 -37.21452,-48.77632 1.41298,-2.82595 11.29506,9.80445 17.70399,6.14221 z" id="path5636"/> <path style="opacity:1;fill:#af6c1e;fill-opacity:1;stroke:none;stroke-width:1;stroke-linejoin:miter;stroke-miterlimit:10;stroke-dasharray:none;stroke-opacity:1" d="m 216.061,840.63687 c 12.24117,0.7412 12.97689,18.03518 19.87183,24.93012 15.67021,13.02585 17.40744,7.01766 29.26579,1.08392 -45.30787,53.14621 -49.41108,9.87965 -49.13762,-26.01404 z" id="path5634"/> <path style="opacity:1;fill:#9e5f1d;fill-opacity:1;stroke:none;stroke-width:1;stroke-linejoin:miter;stroke-miterlimit:10;stroke-dasharray:none;stroke-opacity:1" d="m 202.85266,930.49732 c 6.2166,5.31675 3.44369,29.73298 -4.34319,34.74554 1.57526,-6.12036 -5.65021,-9.51437 -6.89801,-13.02958 -2.37496,-7.12486 6.89693,-33.30067 11.2412,-21.71596 z" id="path5630"/> <path style="opacity:1;fill:#deab53;fill-opacity:1;stroke:none;stroke-width:1;stroke-linejoin:miter;stroke-miterlimit:10;stroke-dasharray:none;stroke-opacity:1" d="m 131.31771,954.25714 c -5.62271,-0.86503 -6.74944,-19.65174 1.02193,-18.13922 4.06966,0.79207 23.29392,-4.66911 24.52627,-4.34319 -5.90104,31.82959 -14.16862,9.76688 -25.5482,22.48241 z" id="path5612"/> <path style="opacity:1;fill:#efc676;fill-opacity:1;stroke:none;stroke-width:1;stroke-linejoin:miter;stroke-miterlimit:10;stroke-dasharray:none;stroke-opacity:1" d="m 180.88121,946.84816 c 2.91826,28.44122 -18.06131,10.61509 -13.28506,32.19073 -14.67663,-15.32892 -34.42167,-75.53088 4.59868,-41.38808 3.66231,3.20453 5.95827,5.378 8.68638,9.19735 z" id="path5626"/> <path style="opacity:1;fill:#cca761;fill-opacity:1;stroke:none;stroke-width:1;stroke-linejoin:miter;stroke-miterlimit:10;stroke-dasharray:none;stroke-opacity:1" d="m 168.10712,931.51925 c -0.57168,4.65539 -2.53283,10.82973 -0.25549,15.83988 1.74334,3.83533 4.2979,6.76411 7.40898,8.94187 4.66798,3.26758 12.26313,8.28501 12.26313,14.56247 0,1.78482 1.9054,-8.47379 -0.25548,-17.11729 -2.43184,-9.72738 -6.29651,-27.05117 -19.16114,-22.22693 z" id="path5624"/> <path style="opacity:1;fill:#eecb84;fill-opacity:1;stroke:none;stroke-width:1;stroke-linejoin:miter;stroke-miterlimit:10;stroke-dasharray:none;stroke-opacity:1" d="m 198.50947,933.30762 c 5.71121,14.66569 -14.30408,20.58074 0.25548,35.51199 -28.32772,-16.54473 -23.22815,-41.84065 -0.25548,-35.51199 z" id="path5622"/> <path style="opacity:1;fill:#ab570f;fill-opacity:1;stroke:none;stroke-width:1;stroke-linejoin:miter;stroke-miterlimit:10;stroke-dasharray:none;stroke-opacity:1" d="m 206.66705,830.159 c 32.4669,15.02875 4.78063,46.55392 21.67836,83.10039 -34.90638,-25.16392 -64.53477,-85.23365 -21.67836,-83.10039 z" id="path5616"/> <path style="opacity:1;fill:#4e2507;fill-opacity:1;stroke:none;stroke-width:1;stroke-linejoin:miter;stroke-miterlimit:10;stroke-dasharray:none;stroke-opacity:1" d="m 202.59717,870.20358 c -0.95341,7.12232 -6.58924,9.8102 -13.02957,10.73024 -25.13221,3.59032 -36.90212,-21.205 -6.64253,-21.205 10.452,0 9.94745,12.6358 19.6721,10.47476 z" id="path5620"/> <path style="opacity:1;fill:#cea661;fill-opacity:1;stroke:none;stroke-width:1;stroke-linejoin:miter;stroke-miterlimit:10;stroke-dasharray:none;stroke-opacity:1" d="m 132.59513,948.89202 c 2.58325,4.16914 7.48667,9.63866 10.98572,8.4309 4.50369,-1.55453 9.9638,8.94188 9.9638,8.94188 7.18907,-7.18908 -6.69043,-42.32619 -20.94952,-17.37278 z" id="path5614"/> <path style="opacity:1;fill:#c67115;fill-opacity:1;stroke:none;stroke-width:1;stroke-linejoin:miter;stroke-miterlimit:10;stroke-dasharray:none;stroke-opacity:1" d="m 90.687812,914.3433 c 3.591216,4.22139 10.681748,3.87829 13.910278,9.75527 3.77445,6.87073 14.95287,15.98464 25.82712,14.3911 -6.18196,14.84154 -20.51074,16.82006 -34.49846,10.35836 -7.495057,-3.74753 -11.273905,-28.46976 -5.238938,-34.50473 z" id="path5610"/> <path style="opacity:1;fill:#511300;fill-opacity:1;stroke:none;stroke-width:1;stroke-linejoin:miter;stroke-miterlimit:10;stroke-dasharray:none;stroke-opacity:1" d="m 87.885787,908.27039 c 23.834213,12.65365 11.238332,17.27913 29.380423,24.27078 -10.17155,6.38544 -10.97827,-8.31923 -29.380423,-18.13921 -0.984292,-0.98429 -0.121313,-4.91843 0,-6.13157 z" id="path5606"/> <path style="opacity:1;fill:#8b3205;fill-opacity:1;stroke:none;stroke-width:1;stroke-linejoin:miter;stroke-miterlimit:10;stroke-dasharray:none;stroke-opacity:1" d="m 222.26929,806.84406 c -2.00655,7.72736 -11.2714,-0.25548 -15.5844,-0.25548 -13.06603,0 -24.0153,5.5095 -24.0153,20.43855 0,1.64047 11.02861,5.62061 13.02958,5.62061 3.55588,0 7.46812,0.33078 10.98572,-0.25549 6.53973,-1.08995 14.89111,-20.0019 15.5844,-25.54819 z" id="path5604"/> <path style="opacity:1;fill:#531d06;fill-opacity:1;stroke:none;stroke-width:1;stroke-linejoin:miter;stroke-miterlimit:10;stroke-dasharray:none;stroke-opacity:1" d="m 190.33405,824.98328 c 7.86548,1.54813 9.7939,7.32467 12.77409,13.28506 3.79982,7.59964 4.59506,13.34318 14.30699,15.5844 0.64809,0.14956 -1.06258,0.80709 -1.53289,1.27741 -3.21707,3.21707 -13.16777,1.84702 -16.86181,0 -8.02713,-4.01357 -15.25436,-22.2653 -8.68638,-30.14687 z" id="path5602"/> <path style="opacity:1;fill:#c46508;fill-opacity:1;stroke:none;stroke-width:1;stroke-linejoin:miter;stroke-miterlimit:10;stroke-dasharray:none;stroke-opacity:1" d="m 211.02808,774.90882 c 2.58654,6.7512 10.97086,22.01041 -5.6206,50.58542 2.45887,-46.11519 -20.24834,17.29405 -28.10301,-12.26313 -2.29069,-2.29069 -2.64196,-9.44691 -1.5329,-12.7741 8.56499,-25.69497 25.16983,-23.02652 35.25651,-25.54819 z" id="path5600"/> <path style="opacity:1;fill:#994411;fill-opacity:1;stroke:none;stroke-width:1;stroke-linejoin:miter;stroke-miterlimit:10;stroke-dasharray:none;stroke-opacity:1" d="m 172.70579,805.56665 c 15.47808,-1.26954 17.33884,-15.29499 25.5482,-23.50434 3.61506,-3.61506 15.32891,-5.62344 15.32891,-0.51096 0.99985,-15.20262 -18.82314,-30.20595 -36.27843,-22.48241 -19.15775,7.6631 -11.25482,33.18542 -4.59868,46.49771 z" id="path5598"/> <path style="opacity:1;fill:#612b05;fill-opacity:1;stroke:none;stroke-width:1;stroke-linejoin:miter;stroke-miterlimit:10;stroke-dasharray:none;stroke-opacity:1" d="m 135.40542,732.49881 c -62.969013,31.15488 55.16463,70.98504 32.7017,26.05916 -7.07984,-14.15968 -44.44288,-5.51209 -32.7017,-26.05916 z" id="path5596"/> <path style="opacity:1;fill:#9e4d0c;fill-opacity:1;stroke:none;stroke-width:1;stroke-linejoin:miter;stroke-miterlimit:10;stroke-dasharray:none;stroke-opacity:1" d="m 187.52374,740.16327 c 12.51112,45.98772 -53.48021,54.84212 -34.74554,17.37278 7.08109,-14.16218 34.74554,10.61317 34.74554,-17.37278 z" id="path5594"/> <path style="opacity:1;fill:#5b2305;fill-opacity:1;stroke:none;stroke-width:1;stroke-linejoin:miter;stroke-miterlimit:10;stroke-dasharray:none;stroke-opacity:1" d="m 39.743663,733.69029 c 20.365406,-3.11255 60.689647,-7.35957 74.067737,10.47788 17.456,23.27467 -37.876785,28.754 -50.582846,22.40097 -25.744837,-12.87242 2.806212,-24.11515 -23.484891,-32.87885 z" id="path5592"/> <path style="opacity:1;fill:#a75a20;fill-opacity:1;stroke:none;stroke-width:1;stroke-linejoin:miter;stroke-miterlimit:10;stroke-dasharray:none;stroke-opacity:1" d="m 72.983817,751.03298 c -25.685975,32.32363 66.454983,59.20354 42.995413,12.28441 -5.57275,-11.14551 -32.455465,6.1605 -42.995413,-12.28441 z" id="path5590"/> <path style="opacity:1;fill:#ad6111;fill-opacity:1;stroke:none;stroke-width:1;stroke-linejoin:miter;stroke-miterlimit:10;stroke-dasharray:none;stroke-opacity:1" d="m 131.8767,748.14253 c -15.13923,11.9416 -7.71409,37.08786 4.33567,49.13762 5.10786,5.10786 50.64971,13.14075 36.1306,-15.89746 -9.39323,-18.78647 -36.48778,-15.33693 -40.46627,-33.24016 z" id="path5586"/> <path style="opacity:1;fill:#2f180e;fill-opacity:1;stroke:none;stroke-width:1;stroke-linejoin:miter;stroke-miterlimit:10;stroke-dasharray:none;stroke-opacity:1" d="m 32.190724,722.02406 c 12.745139,-6.23546 40.228144,-4.4812 49.563497,4.85415 8.214366,8.21437 -18.422265,15.23457 -22.737893,13.79603 -6.448326,-2.14944 -7.598026,-11.43026 -11.752169,-15.5844 -3.091136,-3.09114 -10.566466,-2.06424 -15.073435,-3.06578 z" id="path5584"/> <path style="opacity:1;fill:#732f01;fill-opacity:1;stroke:none;stroke-width:1;stroke-linejoin:miter;stroke-miterlimit:10;stroke-dasharray:none;stroke-opacity:1" d="m 109.34627,722.27954 c 10.09245,8.58655 -3.06578,17.26268 -3.06578,28.61398 0,11.38015 1.23756,19.1213 8.68638,26.57012 5.91164,5.91164 24.01531,9.10333 24.01531,9.70831 0,2.57743 0.80059,-5.84194 -1.02193,-7.66446 -4.71599,-4.71599 -12.26314,-4.46896 -12.26314,-13.79602 0,-17.75995 -1.36742,-37.81315 -16.35084,-43.43193 z" id="path5580"/> <path style="opacity:1;fill:#180a09;fill-opacity:1;stroke:none;stroke-width:1;stroke-linejoin:miter;stroke-miterlimit:10;stroke-dasharray:none;stroke-opacity:1" d="m 72.556871,716.65894 c 0,0 51.052979,9.47558 36.789399,40.87711 C 64.031961,732.90079 72.556871,722.65483 72.556871,716.65894 Z" id="path5578"/> <path style="opacity:1;fill:#b78536;fill-opacity:1;stroke:none;stroke-width:1;stroke-linejoin:miter;stroke-miterlimit:10;stroke-dasharray:none;stroke-opacity:1" d="m 142.30344,935.09599 c 19.82121,-6.10472 28.83982,12.5998 43.43193,4.85416 7.62734,-4.04867 9.52162,-3.44562 14.56247,-5.36512 -5.40651,-44.76787 -51.18343,-3.76524 -57.9944,0.51096 z" id="path5576"/> <path style="opacity:1;fill:#f3c76e;fill-opacity:1;stroke:none;stroke-width:1;stroke-linejoin:miter;stroke-miterlimit:10;stroke-dasharray:none;stroke-opacity:1" d="m 197.87076,930.24184 c 1.93551,-6.04974 6.29057,-11.33226 7.28124,-18.26696 0.41267,-2.88874 3.15841,-28.37605 0.12774,-29.89139 -2.32582,-1.16291 -9.56811,6.18315 -10.6025,7.7922 -8.09508,17.46686 -4.5835,29.03481 3.19352,40.36615 z" id="path5574"/> <path style="opacity:1;fill:#f6de99;fill-opacity:1;stroke:none;stroke-width:1;stroke-linejoin:miter;stroke-miterlimit:10;stroke-dasharray:none;stroke-opacity:1" d="m 195.82787,890.85841 c -7.44468,15.15187 1.28675,15.70837 0.1459,32.30589 0.14994,-0.2543 -6.58525,0.32131 -9.62377,-9.42339 -8.54892,-8.54891 -0.76136,-21.6026 9.47787,-22.8825 z" id="path5572"/> <path style="opacity:1;fill:#cd8f38;fill-opacity:1;stroke:none;stroke-width:1;stroke-linejoin:miter;stroke-miterlimit:10;stroke-dasharray:none;stroke-opacity:1" d="m 205.58313,882.18707 c 3.93824,10.88233 -16.19432,43.5696 -2.16784,50.58284 1.22036,0.61018 2.41085,-1.93124 3.25176,-3.61306 8.78222,-17.56445 7.6741,-29.45374 -1.08392,-46.96978 z" id="path5570"/> <path style="opacity:1;fill:#f7d387;fill-opacity:1;stroke:none;stroke-width:1;stroke-linejoin:miter;stroke-miterlimit:10;stroke-dasharray:none;stroke-opacity:1" d="m 133.10609,923.85479 c 13.20423,0.61331 46.15921,6.72234 52.11832,-8.17542 5.40243,-13.50609 -8.11026,-28.80602 -22.48241,-24.01531 -18.08471,6.02824 -14.85582,26.64819 -29.63591,32.19073 z" id="path5568"/> <path style="opacity:1;fill:#381901;fill-opacity:1;stroke:none;stroke-width:1;stroke-linejoin:miter;stroke-miterlimit:10;stroke-dasharray:none;stroke-opacity:1" d="m 164.53037,929.21991 c 1.65977,-1.60182 2.7923,-2.03486 4.85416,-3.06578 2.87271,-1.43636 13.86604,-9.6383 17.37277,-6.13157 1.40063,1.40063 4.5356,5.36512 2.55482,5.36512 -0.16871,0 -4.17943,-3.18152 -6.13157,-3.83223 -4.31943,-1.43981 -14.93107,6.42476 -18.65018,7.66446 z" id="path5566"/> <path style="opacity:1;fill:#e67c1a;fill-opacity:1;stroke:none;stroke-width:1;stroke-linejoin:miter;stroke-miterlimit:10;stroke-dasharray:none;stroke-opacity:1" d="m 164.01941,891.1531 c -0.65658,9.59922 -9.17013,14.53525 -15.07344,20.43856 -1.56384,1.56384 -3.80867,4.18193 -3.06578,7.15349 0.17778,0.71114 3.27924,3.61878 3.06578,3.83223 -2.31567,2.31567 -10.78365,-4.91222 -12.51861,-5.87609 -20.75914,-11.53285 -17.03161,-33.09363 5.6206,-42.15452 3.58562,-1.43425 8.5911,-10.21927 11.75217,-10.21927 2.00444,0 0.79126,3.93149 1.27741,5.87608 2.11586,8.46345 5.05324,16.69194 8.94187,20.94952 z" id="path5564"/> <path style="opacity:1;fill:#f5c567;fill-opacity:1;stroke:none;stroke-width:1;stroke-linejoin:miter;stroke-miterlimit:10;stroke-dasharray:none;stroke-opacity:1" d="m 153.54465,861.26171 c -5.60022,6.88443 -7.55518,20.29236 -0.76645,27.08109 10.85385,5.43966 18.85093,9.53734 20.18307,16.35084 4.79424,-8.40252 4.05158,-18.17838 0.51097,-26.31464 -5.63345,-5.63344 -15.95255,-12.64536 -19.92759,-17.11729 z" id="path5562"/> <path style="opacity:1;fill:#c0731c;fill-opacity:1;stroke:none;stroke-width:1;stroke-linejoin:miter;stroke-miterlimit:10;stroke-dasharray:none;stroke-opacity:1" d="m 152.47114,864.48307 c -2.983,8.22808 -9.232,17.26172 -16.62007,20.95575 -18.26504,12.05924 -11.69272,18.7796 -7.22613,29.26579 -30.424289,-9.42407 6.86322,-86.54327 23.8462,-50.22154 z" id="path5560"/> <path style="opacity:1;fill:#88581e;fill-opacity:1;stroke:none;stroke-width:1;stroke-linejoin:miter;stroke-miterlimit:10;stroke-dasharray:none;stroke-opacity:1" d="m 146.69025,797.64146 c -10.22137,-11.07192 3.43241,-9.85906 0.72261,-19.14922 18.88517,-0.76438 29.17789,18.80043 32.15623,28.90448 16.61799,16.61798 -29.99076,1.79708 -32.87884,-9.75526 z" id="path5558"/> <path style="opacity:1;fill:#874813;fill-opacity:1;stroke:none;stroke-width:1;stroke-linejoin:miter;stroke-miterlimit:10;stroke-dasharray:none;stroke-opacity:1" d="m 102.70374,798.15767 c 1.49496,-11.63545 13.12658,-16.2781 2.04386,-26.31464 23.15347,-0.56824 54.42048,29.51972 51.09638,41.38808 -1.99974,5.99924 -9.7463,5.10964 -15.32891,5.10964 -25.77361,0 -32.24804,2.0701 -37.81133,-20.18308 z" id="path5556"/> <path style="opacity:1;fill:#e19b38;fill-opacity:1;stroke:none;stroke-width:1;stroke-linejoin:miter;stroke-miterlimit:10;stroke-dasharray:none;stroke-opacity:1" d="m 172.96127,814.25304 c 1.88851,-8.05245 3.55144,-7.11856 7.45873,-11.05904 7.80322,4.68193 5.95173,47.62594 -7.45873,11.05904 z" id="path5552"/> <path style="opacity:1;fill:#9c570c;fill-opacity:1;stroke:none;stroke-width:1;stroke-linejoin:miter;stroke-miterlimit:10;stroke-dasharray:none;stroke-opacity:1" d="m 150.22338,813.99755 c -10.6976,-18.27938 6.16612,-11.3295 -0.51096,-27.08108 22.42075,8.11884 17.72024,16.7412 21.97144,21.46048 4.02582,4.02581 -1.4198,24.1577 -4.34319,27.08109 -7.67086,7.67086 -16.65304,-17.74646 -17.11729,-21.46049 z" id="path5550"/> <path style="opacity:1;fill:#8a521c;fill-opacity:1;stroke:none;stroke-width:1;stroke-linejoin:miter;stroke-miterlimit:10;stroke-dasharray:none;stroke-opacity:1" d="m 189.86631,850.39214 c 4.50069,5.75396 -0.90326,13.17783 -0.90326,17.52334 -3.60428,-10.30161 -9.9016,-1.10293 -11.01983,-14.63289 -4.28314,-8.56628 8.08845,-9.02588 11.92309,-2.89045 z" id="path5548"/> <path style="opacity:1;fill:#473318;fill-opacity:1;stroke:none;stroke-width:1;stroke-linejoin:miter;stroke-miterlimit:10;stroke-dasharray:none;stroke-opacity:1" d="m 164.9362,879.11597 c 7.45521,-11.97593 26.34655,2.54353 33.96277,-1.26458 2.18715,-1.09357 -5.70347,-4.23244 -5.7809,-4.51632 -0.55408,-2.03138 8.04832,1.20201 8.49069,2.52914 3.15479,9.46437 -23.96407,13.12873 -29.62709,10.29722 -3.46208,-1.73103 -4.2608,-5.45422 -7.04547,-7.04546 z" id="path5546"/> <path style="opacity:1;fill:#6a1900;fill-opacity:1;stroke:none;stroke-width:1;stroke-linejoin:miter;stroke-miterlimit:10;stroke-dasharray:none;stroke-opacity:1" d="m 193.52757,883.74412 c -11.83408,-13.16157 -21.00296,5.0416 -18.01148,-7.7922 0.3692,0.41593 -16.04258,13.37149 10.09154,13.28507 1.1079,-1.1079 9.95045,-3.05626 7.91994,-5.49287 z" id="path5542"/> <path style="opacity:1;fill:#db9d50;fill-opacity:1;stroke:none;stroke-width:1;stroke-linejoin:miter;stroke-miterlimit:10;stroke-dasharray:none;stroke-opacity:1" d="m 183.0015,846.59842 c -0.2468,6.03588 5.80405,4.90046 8.80291,7.89932 1.12734,1.12734 3.1959,2.27644 3.25142,3.59703 0,0 9.42306,-10.35257 0.59138,-25.04532 -2.54727,-4.23773 -19.76117,7.61943 -12.64571,13.54897 z" id="path5534"/> <path style="opacity:1;fill:#804b15;fill-opacity:1;stroke:none;stroke-width:1;stroke-linejoin:miter;stroke-miterlimit:10;stroke-dasharray:none;stroke-opacity:1" d="m 180.2917,846.77907 c 6.21234,8.95233 -11.96252,38.40675 -20.29641,33.77198 -10.14347,-29.94383 -2.86695,-39.30321 20.29641,-33.77198 z" id="path5532"/> <path style="opacity:1;fill:#f3d488;fill-opacity:1;stroke:none;stroke-width:1;stroke-linejoin:miter;stroke-miterlimit:10;stroke-dasharray:none;stroke-opacity:1" d="m 162.99748,844.65539 c -15.30823,17.48083 0.18717,27.73381 3.32126,37.30036 -15.15937,-3.55526 -23.82303,-29.57269 -14.56247,-38.83325 2.96793,-2.96794 10.51303,-1.37984 11.24121,1.53289 z" id="path5525"/> <path style="opacity:1;fill:#9f652b;fill-opacity:1;stroke:none;stroke-width:1;stroke-linejoin:miter;stroke-miterlimit:10;stroke-dasharray:none;stroke-opacity:1" d="m 162.94902,840.09492 c 1.63665,3.16714 2.19384,5.85512 4.87763,7.94873 7.32621,8.85368 13.16133,-5.66273 22.58163,9.39395 -6.16576,-15.91944 -21.97801,-30.6153 -27.45926,-17.34268 z" id="path5521"/> <path style="opacity:1;fill:#b3751c;fill-opacity:1;stroke:none;stroke-width:1;stroke-linejoin:miter;stroke-miterlimit:10;stroke-dasharray:none;stroke-opacity:1" d="m 168.0073,803.96431 c 2.37256,3.25382 4.69789,5.78211 6.86482,8.67135 2.69463,3.59284 -1.47416,11.86524 0.54196,15.89746 1.73366,3.46734 9.08436,8.51622 7.40677,13.54898 -0.43722,1.31166 -2.04563,1.44522 -3.43241,1.44522 -9.1185,0 -13.89074,-7.50924 -15.89746,-15.53616 -2.29261,-9.17042 10.488,-19.05045 4.51632,-24.02685 z" id="path5519"/> <path style="opacity:1;fill:#a55705;fill-opacity:1;stroke:none;stroke-width:1;stroke-linejoin:miter;stroke-miterlimit:10;stroke-dasharray:none;stroke-opacity:1" d="m 177.04898,808.88792 c 1.41565,2.98063 -4.09545,6.04324 -7.59154,9.7936 -8.94154,22.7572 26.9334,22.02386 7.59154,-9.7936 z" id="path5517"/> <path style="opacity:1;fill:#f7c965;fill-opacity:1;stroke:none;stroke-width:1;stroke-linejoin:miter;stroke-miterlimit:10;stroke-dasharray:none;stroke-opacity:1" d="m 179.34832,836.73545 c 2.06347,0.46975 1.38411,4.52428 2.8103,5.23738 4.14279,2.07139 11.55002,-13.4128 5.87609,-13.4128 -2.50597,0 -6.09058,7.85094 -8.68639,8.17542 z" id="path5515"/> <path style="opacity:1;fill:#150103;fill-opacity:1;stroke:none;stroke-width:1;stroke-linejoin:miter;stroke-miterlimit:10;stroke-dasharray:none;stroke-opacity:1" d="m 180.49799,827.5381 c 0.35688,-3.07414 8.17542,-4.54434 8.17542,-3.83223 0,1.39823 7.32226,1.3231 5.23738,5.49286 -8.63822,6.44108 -3.33787,-0.84239 -6.77027,0.6387 -6.60139,15.186 -14.50114,4.80537 -6.64253,-2.29933 z" id="path5513"/> <path style="opacity:1;fill:#814200;fill-opacity:1;stroke:none;stroke-width:1;stroke-linejoin:miter;stroke-miterlimit:10;stroke-dasharray:none;stroke-opacity:1" d="m 144.34729,870.20358 c -0.92295,-4.37534 -4.5495,-9.09482 -7.40897,-12.00765 -8.7791,-3.16163 -15.81354,-7.38849 -19.16115,-15.32891 17.07282,-18.41097 32.1685,19.04738 26.57012,27.33656 z" id="path5505"/> <path style="opacity:1;fill:#e1a341;fill-opacity:1;stroke:none;stroke-width:1;stroke-linejoin:miter;stroke-miterlimit:10;stroke-dasharray:none;stroke-opacity:1" d="m 153.28916,827.28262 c 16.64624,-2.90432 17.60538,23.10904 14.81796,26.8256 -16.77151,-28.10381 -41.2723,17.82516 -14.81796,-26.8256 z" id="path5501"/> <path style="opacity:1;fill:#f4bd5b;fill-opacity:1;stroke:none;stroke-width:1;stroke-linejoin:miter;stroke-miterlimit:10;stroke-dasharray:none;stroke-opacity:1" d="m 143.43849,810.64847 c 22.47806,-2.88419 9.38881,52.92044 1.75206,52.07191 -1.81257,-24.8128 -26.21622,-21.12318 -26.68217,-32.20007 0,-14.85462 15.47189,-14.46714 24.93011,-19.87184 z" id="path5499"/> <path style="opacity:1;fill:#c86212;fill-opacity:1;stroke:none;stroke-width:1;stroke-linejoin:miter;stroke-miterlimit:10;stroke-dasharray:none;stroke-opacity:1" d="m 107.30789,813.17762 c 11.59668,-19.99068 48.49665,-2.09528 44.80195,2.16783 0,0 -7.45593,-2.29933 -9.75527,0 -3.68533,3.68534 -22.94469,26.01051 -29.62709,12.64571 -2.54374,-5.08748 -1.57001,-10.19405 -5.41959,-14.81354 z" id="path5497"/> <path style="opacity:1;fill:#af5d0c;fill-opacity:1;stroke:none;stroke-width:1;stroke-linejoin:miter;stroke-miterlimit:10;stroke-dasharray:none;stroke-opacity:1" d="m 49.711867,764.70935 c 16.619962,1.41058 41.659708,2.74177 52.910673,13.99274 23.87226,23.87225 -23.922386,67.60582 -31.896192,59.63202 -20.145661,-20.14567 33.031082,-52.49093 -21.014481,-73.62476 z" id="path5495"/> <path style="opacity:1;fill:#c46718;fill-opacity:1;stroke:none;stroke-width:1;stroke-linejoin:miter;stroke-miterlimit:10;stroke-dasharray:none;stroke-opacity:1" d="m 108.40084,812.9096 c -0.51094,-1.01189 -1.50143,-7.16509 -3.46698,-7.16509 -4.11668,19.23685 -30.78613,18.44293 -25.193369,32.5896 6.462893,16.34763 26.030059,1.95592 30.740539,20.10847 4.40255,-11.44663 -0.17464,-14.16069 -3.69811,-24.73111 -2.31409,-6.94225 2.47593,-13.93776 1.61792,-20.80187 z" id="path5493"/> <path style="opacity:1;fill:#e7963d;fill-opacity:1;stroke:none;stroke-width:1;stroke-linejoin:miter;stroke-miterlimit:10;stroke-dasharray:none;stroke-opacity:1" d="m 114.41027,830.93789 c 2.25025,-13.51943 -0.35255,-21.57013 -8.08962,-32.5896 8.09617,22.31569 -16.384449,23.71223 8.08962,32.5896 z" id="path5491"/> <path style="opacity:1;fill:#120001;fill-opacity:1;stroke:none;stroke-width:1;stroke-linejoin:miter;stroke-miterlimit:10;stroke-dasharray:none;stroke-opacity:1" d="m 95.804155,830.82232 c -4.537332,-1.25531 -5.842478,-1.09148 -2.426885,-4.50707 5.938276,4.4593 11.11446,-6.7512 17.55938,-2.69506 8.82593,6.10556 17.95744,18.64297 16.87927,20.26108 -14.22279,-5.1584 -16.8392,-5.52647 -27.966958,-7.51179 -1.21703,-0.17386 -3.243734,-4.58587 -4.044807,-5.54716 z" id="path5489"/> <path style="opacity:1;fill:#d16705;fill-opacity:1;stroke:none;stroke-width:1;stroke-linejoin:miter;stroke-miterlimit:10;stroke-dasharray:none;stroke-opacity:1" d="m 99.531856,831.23478 c 1.377944,-3.17369 10.371134,-7.36854 12.584484,-2.94183 1.08021,9.04417 -11.43078,7.15036 -12.584484,2.94183 z" id="path5483"/> <path style="opacity:1;fill:#e3dbdb;fill-opacity:1;stroke:none;stroke-width:1;stroke-linejoin:miter;stroke-miterlimit:10;stroke-dasharray:none;stroke-opacity:1" d="m 105.97396,827.00864 c -1.6091,-1.12206 -2.95901,1.32752 -1.47722,2.22379 1.29767,0.78491 1.47722,-1.23187 1.47722,-2.22379 z" id="path5487"/> <path style="opacity:1;fill:#feca6f;fill-opacity:1;stroke:none;stroke-width:1;stroke-linejoin:miter;stroke-miterlimit:10;stroke-dasharray:none;stroke-opacity:1" d="m 126.19799,853.12654 c 49.5317,12.66856 -60.746977,69.72043 -41.141467,30.50941 7.712512,-15.42502 41.141467,-7.05739 41.141467,-30.50941 z" id="path5479"/> <path style="opacity:1;fill:#d49834;fill-opacity:1;stroke:none;stroke-width:1;stroke-linejoin:miter;stroke-miterlimit:10;stroke-dasharray:none;stroke-opacity:1" d="m 108.83876,840.14644 c 13.88018,28.01075 -22.185516,33.36211 -26.093555,41.17819 -12.375751,24.7515 90.798395,-25.00198 26.093555,-41.17819 z" id="path5477"/> <path style="opacity:1;fill:#668000;fill-opacity:1;stroke:none;stroke-width:1;stroke-linejoin:miter;stroke-miterlimit:10;stroke-dasharray:none;stroke-opacity:1" d="m 135,1042.3622 15,-55" id="path5459"/> <path style="opacity:1;fill:#fcda8d;fill-opacity:1;stroke:none;stroke-width:1;stroke-linejoin:miter;stroke-miterlimit:10;stroke-dasharray:none;stroke-opacity:1" d="m 94.792244,829.76387 c 4.491963,3.25575 10.669876,7.33205 17.861356,7.78353 8.34484,0.52389 14.97105,10.92398 16.45997,15.75109 -10.24944,-17.05857 -33.211138,-10.78906 -34.321326,-23.53462 z" id="path5481"/> <path style="opacity:1;fill:#020009;fill-opacity:1;stroke:none;stroke-width:1;stroke-linejoin:miter;stroke-miterlimit:10;stroke-dasharray:none;stroke-opacity:1" d="m 105.91617,826.8353 c 2.54051,2.20402 -2.07462,3.85477 -1.38679,1.79127 0.28589,-0.85766 1.2469,-0.67211 1.38679,-1.79127 z" id="path5485"/> <path style="opacity:1;fill:#8a4301;fill-opacity:1;stroke:none;stroke-width:1;stroke-linejoin:miter;stroke-miterlimit:10;stroke-dasharray:none;stroke-opacity:1" d="m 122.63133,838.01286 c -81.75422,142.89956 -40.87711,71.44978 0,0 z" id="path5503"/> <path style="opacity:1;fill:#b7600a;fill-opacity:1;stroke:none;stroke-width:1;stroke-linejoin:miter;stroke-miterlimit:10;stroke-dasharray:none;stroke-opacity:1" d="m 175.26061,830.22066 7.66446,-3.95997 c 1.79218,5.98725 -0.84168,8.68638 -6.51479,8.68638 z" id="path5509"/> <path style="opacity:1;fill:#401500;fill-opacity:1;stroke:none;stroke-width:1;stroke-linejoin:miter;stroke-miterlimit:10;stroke-dasharray:none;stroke-opacity:1" d="m 180.24251,828.30454 c -5.31456,0.58873 -0.52209,4.17668 0,0 z" id="path5511"/> <path style="opacity:1;fill:#ffffff;fill-opacity:1;stroke:none;stroke-width:1;stroke-linejoin:miter;stroke-miterlimit:10;stroke-dasharray:none;stroke-opacity:1" d="m 178.91489,828.67182 c 0.77072,1.86387 2.63879,-0.34749 0,0 z" id="path5523"/> <path style="opacity:1;fill:#000007;fill-opacity:1;stroke:none;stroke-width:1;stroke-linejoin:miter;stroke-miterlimit:10;stroke-dasharray:none;stroke-opacity:1" d="m 156.61043,875.05774 c -0.89625,13.11616 11.74183,12.50827 19.16114,19.92759 18.18287,19.35294 2.55482,27.59205 2.55482,27.59205 0,0 14.08667,-1.48635 8.43091,-25.29271 0,-19.34304 -19.6491,-14.72852 -30.14687,-22.22693 z" id="path5527"/> <path style="display:inline;opacity:1;fill:#4e2200;fill-opacity:1;stroke:none;stroke-width:1;stroke-linejoin:miter;stroke-miterlimit:10;stroke-dasharray:none;stroke-opacity:1" d="m 190.51382,853.96777 c 4.61283,0.85057 14.3499,18.46599 14.67765,23.83886 -0.77744,1.57461 -26.13472,-3.70171 -14.67765,-23.83886 z" id="path5652"/> <path style="opacity:1;fill:#7d3b1d;fill-opacity:1;stroke:none;stroke-width:1;stroke-linejoin:miter;stroke-miterlimit:10;stroke-dasharray:none;stroke-opacity:1" d="m 190.97275,881.70027 c -0.2191,-3.22655 10.34414,-5.766 12.26313,-4.08771 6.13309,6.13309 -13.65195,16.58707 -12.26313,4.08771 z" id="path5544"/> <path style="opacity:1;fill:#c3630f;fill-opacity:1;stroke:none;stroke-width:1;stroke-linejoin:miter;stroke-miterlimit:10;stroke-dasharray:none;stroke-opacity:1" d="m 189.18438,880.93382 c 17.64043,0.3108 -1.37945,17.76885 -2.93805,16.98955 -1.57641,-0.7882 -3.80025,-8.8461 -2.17159,-10.47476 1.27476,-1.27476 9.02522,-3.71794 5.10964,-6.51479 z" id="path5540"/> <path style="opacity:1;fill:#a64b22;fill-opacity:1;stroke:none;stroke-width:1;stroke-linejoin:miter;stroke-miterlimit:10;stroke-dasharray:none;stroke-opacity:1" d="m 196.91178,887.0647 c -8.28885,4.56996 -1.76754,9.8594 -8.85199,14.63289 -0.13778,0.21528 -1.17493,0.45095 -1.26458,0.36131 -2.3341,-6.36865 4.31948,-14.94827 10.11657,-14.9942 z" id="path5536"/> <path style="opacity:1;fill:#0c0201;fill-opacity:1;stroke:none;stroke-width:1;stroke-linejoin:miter;stroke-miterlimit:10;stroke-dasharray:none;stroke-opacity:1" d="m 196.46015,877.30944 c 24.42127,-5.2559 -4.63893,19.11224 -4.24534,16.25877 0.27845,-7.58015 9.12495,-8.79058 11.53697,-15.2068 0.63705,-1.69463 -6.24005,-1.00417 -7.29163,-1.05197 z" id="path5538"/> <path style="opacity:1;fill:#130000;fill-opacity:1;stroke:none;stroke-width:1;stroke-linejoin:miter;stroke-miterlimit:10;stroke-dasharray:none;stroke-opacity:1" d="m 102.25124,928.70257 c 4.68328,6.09954 63.78173,3.04966 61.8433,0.94184 -18.60027,7.31498 -51.50227,12.40569 -61.8433,-0.94184 z" id="path5608"/> </g> </svg>