<svg id="Layer_1" data-name="Layer 1" xmlns="http://www.w3.org/2000/svg" viewBox="0 0 2378.76 1470.61"><defs><style>.cls-1{fill:#bfbebe;}.cls-2{fill:#e7e7e7;}.cls-3{fill:none;stroke:#bfbebe;stroke-miterlimit:10;stroke-width:5px;}</style></defs><title>Artboard 1</title><g id="laptop"><path class="cls-1" d="M20.38,1381.8s-5,23.33,149.28,23.33H2221.22s79.68.61,93.2-22.85V1352.5H20.24Z"/><rect class="cls-2" x="20.73" y="1337.32" width="2294.14" height="44.95"/><path class="cls-1" d="M1372.62,1348.56a11.24,11.24,0,0,1-11.24,11.24H974.22A11.24,11.24,0,0,1,963,1348.56h0a11.24,11.24,0,0,1,11.24-11.24h387.17a11.24,11.24,0,0,1,11.24,11.24Z"/></g><polygon class="cls-2" points="2315.13 1363.13 2315.15 1367.33 2315.13 1367.33 2315.13 1363.13"/><rect class="cls-2" x="2314.68" y="1367.33" width="0.45" height="14.71"/><path class="cls-2" d="M2315.13,1363.14v4.19h-.45v-15H1372.16a11,11,0,0,0,.72-4,10.19,10.19,0,0,0-.07-1.24h942.24Z"/><polygon class="cls-2" points="2315.13 1347.09 2315.13 1363.13 2315.05 1347.09 2315.13 1347.09"/><path class="cls-2" d="M2315.13,1337.09v10h-.08l0-9.06a2.41,2.41,0,0,0-.07-.94Z"/><path class="cls-2" d="M2315,1338l0,9.06H1372.81a11.23,11.23,0,0,0-11.16-10h953.29A2.41,2.41,0,0,1,2315,1338Z"/><path class="cls-2" d="M2314.94,1337.09H21.26c14.3-23,92.91-22.38,92.91-22.38H2165.73C2301.35,1314.71,2313.89,1332.72,2314.94,1337.09Z"/><rect class="cls-2" x="20.99" y="1367.33" width="2293.69" height="14.71"/><path class="cls-2" d="M2314.68,1352.28v15H21v-15H964a11.23,11.23,0,0,0,10.52,7.29h387.17a11.22,11.22,0,0,0,10.51-7.29Z"/><path class="cls-1" d="M21,1382H2314.68c-13.52,23.47-93.2,22.86-93.2,22.86H169.92c-154.31,0-149.28-23.33-149.28-23.33l-.14-29.29H21v15h0Z"/><path class="cls-1" d="M1372.81,1347.09a10.19,10.19,0,0,1,.07,1.24,11,11,0,0,1-.72,4H964a11,11,0,0,1-.72-4,10.19,10.19,0,0,1,.07-1.24Z"/><path class="cls-2" d="M1372.81,1347.09H963.31a11.23,11.23,0,0,1,11.17-10h387.17A11.23,11.23,0,0,1,1372.81,1347.09Z"/><path class="cls-1" d="M964,1352.28h408.2a11.22,11.22,0,0,1-10.51,7.29H974.48A11.23,11.23,0,0,1,964,1352.28Z"/><path class="cls-2" d="M21.26,1337.09H974.48a11.23,11.23,0,0,0-11.17,10H21v-9.55Z"/><path class="cls-2" d="M964,1352.28H21v-5.19H963.31a10.19,10.19,0,0,0-.07,1.24A11,11,0,0,0,964,1352.28Z"/><path class="cls-2" d="M21.26,1337.09l-.27.45v-.45Z"/><rect class="cls-2" x="20.98" y="1352.28" width="0.01" height="15.05"/><path class="cls-2" d="M21,1347.09v5.19h0v-5.19Z"/><polyline class="cls-3" points="2315.13 1347.09 2315.05 1347.09 1372.81 1347.09 963.31 1347.09 20.99 1347.09"/></svg>