<?xml version="1.0" encoding="utf-8"?>
<!-- Generator: Adobe Illustrator 21.1.0, SVG Export Plug-In . SVG Version: 6.00 Build 0)  -->
<svg version="1.1" id="Layer_1" xmlns="http://www.w3.org/2000/svg" xmlns:xlink="http://www.w3.org/1999/xlink" x="0px" y="0px"
	 viewBox="0 0 5000 5000" style="enable-background:new 0 0 5000 5000;" xml:space="preserve">
<style type="text/css">
	.st0{fill:#BFBEBE;}
	.st1{fill:#E7E7E7;}
	.st2{fill:#181818;}
	.st3{fill:#D04899;}
	.st4{fill:#FFFFFF;}
	.st5{fill:#5684C3;}
</style>
<g>
	<g id="laptop">
		<path d="M2101.2,1240.1c0,35.3-28.7,64-64,64H280.3c-35.3,0-64-28.7-64-64V92.3c0-35.3,28.7-64,64-64h1756.9c35.3,0,64,28.7,64,64
			V1240.1z"/>
		<path class="st0" d="M20.4,1337c0,0-5,23.3,149.3,23.3c154.3,0,2051.6,0,2051.6,0s79.7,0.6,93.2-22.9v-29.8H20.2L20.4,1337z"/>
		<rect x="20.7" y="1292.6" class="st1" width="2294.1" height="45"/>
		<rect x="271.4" y="87.2" class="st2" width="1774.6" height="1158.7"/>
		<path class="st0" d="M1372.6,1303.8c0,6.2-5,11.2-11.2,11.2H974.2c-6.2,0-11.2-5-11.2-11.2l0,0c0-6.2,5-11.2,11.2-11.2h387.2
			C1367.6,1292.6,1372.6,1297.6,1372.6,1303.8L1372.6,1303.8z"/>
	</g>
	<g id="program_code">
		<rect x="331.8" y="139.5" class="st3" width="462.2" height="13.5"/>
		<rect x="331.8" y="179.2" class="st4" width="316.4" height="13.5"/>
		<rect x="663.7" y="179.2" class="st4" width="316.4" height="13.5"/>
		<rect x="622.5" y="224.6" class="st4" width="244" height="10.4"/>
		<rect x="331.8" y="223" class="st4" width="265.2" height="13.5"/>
		<rect x="890.4" y="224.3" class="st4" width="316.4" height="13.5"/>
		<rect x="331.8" y="269.4" class="st4" width="398.9" height="13.5"/>
		<rect x="774.3" y="269.4" class="st5" width="321.8" height="13.5"/>
		<rect x="331.8" y="309.1" class="st4" width="316.4" height="13.5"/>
		<rect x="663.7" y="309.1" class="st4" width="316.4" height="13.5"/>
		<rect x="331.8" y="352.9" class="st4" width="199.4" height="13.5"/>
		<rect x="331.8" y="490.7" class="st3" width="398.9" height="13.5"/>
		<rect x="331.8" y="530.4" class="st5" width="316.4" height="13.5"/>
		<rect x="663.7" y="530.4" class="st4" width="316.4" height="13.5"/>
		<rect x="995.5" y="530.4" class="st4" width="139.2" height="13.5"/>
		<rect x="331.8" y="574.2" class="st4" width="132.6" height="13.5"/>
		<rect x="486.7" y="574.2" class="st4" width="132.6" height="13.5"/>
		<rect x="641.5" y="574.2" class="st4" width="132.6" height="13.5"/>
		<rect x="331.8" y="615.2" class="st4" width="462.2" height="13.5"/>
		<rect x="331.8" y="654.9" class="st5" width="316.4" height="13.5"/>
		<rect x="663.7" y="654.9" class="st3" width="316.4" height="13.5"/>
		<rect x="622.5" y="700.3" class="st4" width="244" height="10.4"/>
		<rect x="331.8" y="698.7" class="st4" width="265.2" height="13.5"/>
		<rect x="890.4" y="699.9" class="st4" width="316.4" height="13.5"/>
		<rect x="331.8" y="745.1" class="st4" width="398.9" height="13.5"/>
		<rect x="774.3" y="745.1" class="st5" width="321.8" height="13.5"/>
		<rect x="331.8" y="784.8" class="st4" width="316.4" height="13.5"/>
		<rect x="663.7" y="784.8" class="st4" width="316.4" height="13.5"/>
		<rect x="331.8" y="828.6" class="st4" width="199.4" height="13.5"/>
		<rect x="331.8" y="966.4" class="st4" width="398.9" height="13.5"/>
		<rect x="331.8" y="1006" class="st5" width="316.4" height="13.5"/>
		<rect x="663.7" y="1006" class="st4" width="316.4" height="13.5"/>
		<rect x="995.5" y="1006" class="st4" width="139.2" height="13.5"/>
		<rect x="331.8" y="1049.9" class="st4" width="132.6" height="13.5"/>
		<rect x="486.7" y="1049.9" class="st3" width="132.6" height="13.5"/>
		<rect x="641.5" y="1049.9" class="st4" width="132.6" height="13.5"/>
		<rect x="331.8" y="1093.6" class="st4" width="398.9" height="13.5"/>
		<rect x="331.8" y="1133.3" class="st4" width="316.4" height="13.5"/>
		<rect x="663.7" y="1133.3" class="st4" width="316.4" height="13.5"/>
		<rect x="995.5" y="1133.3" class="st3" width="139.2" height="13.5"/>
		<rect x="331.8" y="1177.1" class="st4" width="132.6" height="13.5"/>
	</g>
</g>
</svg>
