<svg id="Layer_1" data-name="Layer 1" xmlns="http://www.w3.org/2000/svg" viewBox="0 0 512 512"><defs><style>.cls-1{fill:#669b7c;}.cls-2{fill:#f2d1a8;}.cls-3{fill:#e6b47d;}.cls-4{fill:#d2a073;}.cls-5{fill:#f0c891;}.cls-6{fill:#231d1c;}.cls-7{fill:#1e1918;}.cls-8{fill:#fff;}.cls-9{fill:#557669;}.cls-10{fill:#ebebeb;}</style></defs><title>me2</title><path class="cls-1" d="M256,317.79,67.54,361.28a53,53,0,0,0-41.06,51.61v81.45A17.65,17.65,0,0,0,44.14,512H467.86a17.65,17.65,0,0,0,17.65-17.65V412.89a53,53,0,0,0-41.06-51.61Z"/><path class="cls-2" d="M256.52,607.54c3.35,0,31.51-28.5,31.51-35.21s-21.92-142.58-21.92-142.58l17-40.23s4-8.93-4-8.93H234.25c-7.92,0-5.28,8.93-5.28,8.93l18,40.23S225,564.83,225,572.33,253.17,607.54,256.52,607.54Z"/><rect class="cls-3" x="185.38" y="282.48" width="141.24" height="97.1"/><path class="cls-4" d="M185.38,282.48v72.06c83.54,10.93,141.24-63.23,141.24-63.23v-8.83H185.38Z"/><path class="cls-5" d="M361.93,159.34V105.93H150.07V236.48c0,17.71,8.17,34.25,21.77,44.07l39.25,28.35a46.26,46.26,0,0,0,27.12,8.9h35.58a46.25,46.25,0,0,0,27.12-8.9l39.25-28.35c13.6-9.82,21.77-26.36,21.77-44.07V220.25a22.08,22.08,0,0,0,17.65-21.62V181A22.07,22.07,0,0,0,361.93,159.34Z"/><path class="cls-3" d="M204.55,147.16c29.35,5.13,81.79,11.73,157.38,11.73v-53H150.07v53.41A22.08,22.08,0,0,0,132.41,181v17.65a22.07,22.07,0,0,0,17.65,21.63v16.24c0,17.71,8.17,34.25,21.77,44.07l39.25,28.35a46.26,46.26,0,0,0,27.12,8.9h9c-12.89,0-35.18-32.92-46.28-50.7a44,44,0,0,1-6.69-23.36V155.86A8.8,8.8,0,0,1,204.55,147.16Z"/><path class="cls-6" d="M247.17,0c-61.79,0-70.62,26.48-70.62,26.48-35.31,0-53,8.83-53,44.14,0,23.72,8.83,97.1,8.83,97.1l17.65,8.83,16.46-61.84s80.65,26.53,186.58,26.53l8.83,35.31,17.65-8.83s8.83-53,8.83-88.28C388.41,26.48,317.79,0,247.17,0Z"/><path class="cls-7" d="M176.55,26.48c-35.31,0-53,8.83-53,44.14,0,23.72,8.83,97.1,8.83,97.1l17.65,8.83,16.46-61.84s80.65,26.53,186.58,26.53C229.52,114.76,176.55,53,176.55,26.48Z"/><path class="cls-4" d="M256,279.07a66,66,0,0,1-25.19-4.77,6.59,6.59,0,0,1-3.67-9,7.64,7.64,0,0,1,9.77-3.38c11.16,4.66,27,4.66,38.18,0a7.65,7.65,0,0,1,9.77,3.38,6.59,6.59,0,0,1-3.67,9A66.05,66.05,0,0,1,256,279.07Z"/><path class="cls-7" d="M241.33,168c2.63,1.58,3.34,4.33,1.58,6.13s-5.29,2-7.93.42c-7.9-4.74-20-7.44-29.19-6.48-3.05.32-6.19-1.35-7-3.73s1-4.57,4-4.89A66.51,66.51,0,0,1,241.33,168Z"/><path class="cls-7" d="M289.82,160.46a63.12,63.12,0,0,1,19.91-1.35c3,.32,4.85,2.51,4,4.89s-4,4.05-7,3.73c-9.16-1-21.3,1.73-29.19,6.48-2.63,1.58-6.18,1.39-7.93-.42s-1-4.55,1.58-6.13A63.15,63.15,0,0,1,289.82,160.46Z"/><path class="cls-8" d="M229.52,203H194.21c-4.87,0-8.83-3-8.83-6.62V183.17c0-3.66,4-6.62,8.83-6.62h35.31c4.88,0,8.83,3,8.83,6.62v13.24C238.34,200.07,234.39,203,229.52,203Z"/><path class="cls-6" d="M211.86,203h0a8.85,8.85,0,0,1-8.83-8.83v-8.83a8.85,8.85,0,0,1,8.83-8.83h0a8.85,8.85,0,0,1,8.83,8.83v8.83A8.85,8.85,0,0,1,211.86,203Z"/><path class="cls-8" d="M282.48,203h35.31c4.88,0,8.83-3,8.83-6.62V183.17c0-3.66-4-6.62-8.83-6.62H282.48c-4.87,0-8.83,3-8.83,6.62v13.24C273.65,200.07,277.61,203,282.48,203Z"/><path class="cls-6" d="M300.14,203h0a8.85,8.85,0,0,1-8.83-8.83v-8.83a8.85,8.85,0,0,1,8.83-8.83h0a8.85,8.85,0,0,1,8.83,8.83v8.83A8.85,8.85,0,0,1,300.14,203Z"/><path class="cls-9" d="M95.59,431,41.13,376.58a52.74,52.74,0,0,0-14.65,36.31v81.45A17.65,17.65,0,0,0,44.14,512h61.79V456A35.31,35.31,0,0,0,95.59,431Z"/><path class="cls-9" d="M416.41,431l54.46-54.46a52.73,52.73,0,0,1,14.65,36.31v81.45A17.65,17.65,0,0,1,467.86,512H406.07V456A35.3,35.3,0,0,1,416.41,431Z"/><path class="cls-10" d="M185.38,309,256,379.59s-28.81,7.2-53.9,34.62a7.26,7.26,0,0,1-12.22-2.33c-7.52-20.67-22.77-62.63-28.62-78.74a8.82,8.82,0,0,1,3.4-10.35Z"/><path class="cls-10" d="M326.62,309,256,379.59s28.81,7.2,53.9,34.62a7.26,7.26,0,0,0,12.22-2.33c7.52-20.67,22.77-62.63,28.62-78.74a8.82,8.82,0,0,0-3.4-10.35Z"/><circle class="cls-9" cx="313.3" cy="397.38" r="8.83"/><circle class="cls-9" cx="198.59" cy="396.9" r="8.83"/></svg>