<?xml version="1.0" encoding="utf-8"?>
<!-- Generator: Adobe Illustrator 21.1.0, SVG Export Plug-In . SVG Version: 6.00 Build 0)  -->
<svg version="1.1" id="Layer_1" xmlns="http://www.w3.org/2000/svg" xmlns:xlink="http://www.w3.org/1999/xlink" x="0px" y="0px"
	 viewBox="0 0 522.7 801" style="enable-background:new 0 0 522.7 801;" xml:space="preserve">
<style type="text/css">
	.st0{fill:#F4D3AB;stroke:#EAC198;stroke-width:10;stroke-miterlimit:10;}
	.st1{fill:none;stroke:#E7E7E7;stroke-width:16;stroke-miterlimit:10;}
	.st2{fill:#545250;stroke:#000000;stroke-miterlimit:10;}
	.st3{fill:#181818;}
	.st4{fill:none;stroke:#181818;stroke-width:10;stroke-miterlimit:10;}
	.st5{fill:#212529;}
</style>
<title>phone</title>
<path class="st0" d="M33.5,337.8l21.1,5.7c15.4,3.9,31.3-4.4,36.8-19.4l0.1-0.4c5-13.5-1.9-28.4-15.4-33.4c-0.9-0.3-1.7-0.6-2.6-0.8
	l-21.1-5.7c-15.4-4-31.4,4.4-36.8,19.4l-0.1,0.4c-5,13.5,1.9,28.4,15.4,33.4C31.8,337.3,32.6,337.6,33.5,337.8L33.5,337.8z"/>
<path class="st1" d="M458.4,758.2c0,17.4-12.2,31.4-27.4,31.4H95.2c-15.1,0-27.4-14.1-27.4-31.4V43.8c0-17.4,12.2-31.4,27.4-31.4
	h335.8c15.1,0,27.4,14.1,27.4,31.4L458.4,758.2z"/>
<path class="st2" d="M92.4,17.9h341c11,0,20,9,20,20v726c0,11-9,20-20,20h-341c-11,0-20-9-20-20v-726C72.4,26.8,81.4,17.9,92.4,17.9
	z"/>
<path class="st3" d="M319.7,12.3c-10.2,0.2-20.9,3.3-30.8,0.3c-9.9,2.1-20.2,3.5-29.3-0.2c-10.8,0.9-21.6,2-32.5,2.5
	c-19.8,0.8-39.6,0.1-59.4,0.1c-0.1,1-0.2,1.9-0.2,2.9c0,16.2,17.6,29.3,39.3,29.3h112.4c21.7,0,39.3-13.1,39.3-29.3
	c0-1.6-0.2-3.2-0.6-4.8C345.3,13,332.5,12,319.7,12.3z"/>
<path class="st4" d="M458,758.2c0,17.4-12.2,31.4-27.4,31.4H94.8c-15.1,0-27.4-14.1-27.4-31.4V43.8c0-17.4,12.2-31.4,27.4-31.4
	h335.8c15.1,0,27.4,14.1,27.4,31.4L458,758.2z"/>
<ellipse class="st5" cx="290.9" cy="31.8" rx="3.8" ry="3.4"/>
<path class="st0" d="M592.6,577.4c-0.8-3.6-2.8-6.7-5.8-8.8l-10-10.6l0,0l-86.6-234.7c-4-19.1-24.1-31.2-44.6-26.9
	s-34.1,23.4-30.1,42.5l25.2,129.5l-10.7,15.1c-0.7,2.5-1.5,5-2.2,7.5c-0.7,16.8-1.6,33.6-2.3,50.5c-0.9,24.2-0.9,48.5,2,72.6
	c2.7,22.5,8.1,44.5,14.5,66.2c8.2,27.6,17.9,55.4,23.7,83.8L786,957C830.3,990.6,593.4,581.2,592.6,577.4z"/>
<path class="st0" d="M24.4,397.9c-3.5,18.1,6,36.2,22.9,43.5l33,13.4c16.5,6.7,33-2,36.8-19.4l0.1-0.5c3.5-18.1-6-36.2-22.9-43.5
	l-33-13.4c-16.5-6.7-33,2-36.8,19.4L24.4,397.9z"/>
<path class="st0" d="M21.2,470.2c-3.6,17.8,5.8,35.7,22.6,42.9l32.8,13c16.4,6.5,32.9-2.2,36.8-19.4l0.1-0.5
	c3.6-17.8-5.8-35.8-22.6-42.9l-32.8-13c-16.4-6.5-32.9,2.2-36.8,19.4L21.2,470.2z"/>
<path class="st0" d="M20,541.2c-3.6,17.8,5.8,35.7,22.6,42.8l32.9,13c16.4,6.5,32.9-2.2,36.8-19.4l0.1-0.5
	c3.6-17.8-5.8-35.7-22.6-42.9l-32.8-13c-16.4-6.5-32.9,2.2-36.8,19.4L20,541.2z"/>
<path class="st5" d="M279.2,31.8c0,1.7-3,3.1-6.6,3.1h-18.9c-3.7,0-6.6-1.4-6.6-3l0,0c0-1.7,3-3,6.6-3h19
	C276.3,28.9,279.3,30.3,279.2,31.8L279.2,31.8z"/>
</svg>
