<svg id="Layer_1" data-name="Layer 1" xmlns="http://www.w3.org/2000/svg" viewBox="0 0 522.68 800.96"><defs><style>.cls-1{fill:#f4d3ab;stroke:#eac198;}.cls-1,.cls-2,.cls-3,.cls-5{stroke-miterlimit:10;}.cls-1,.cls-5{stroke-width:10px;}.cls-2,.cls-5{fill:none;}.cls-2{stroke:#e7e7e7;stroke-width:16px;}.cls-3{fill:#545250;stroke:#000;}.cls-4{fill:#181818;}.cls-5{stroke:#181818;}.cls-6{fill:#212529;}</style></defs><title>phone-02</title><path class="cls-1" d="M33.53,337.83l21.12,5.71a31.06,31.06,0,0,0,36.83-19.38l.14-.4a26,26,0,0,0-18-34.22l-21.12-5.7a31,31,0,0,0-36.84,19.39l-.14.4a26,26,0,0,0,18,34.21Z"/><path class="cls-2" d="M458.41,758.23c0,17.37-12.24,31.44-27.38,31.44H95.22c-15.11,0-27.38-14.08-27.38-31.44V43.81c0-17.36,12.24-31.44,27.38-31.44H431.06c15.11,0,27.38,14.08,27.38,31.44Z"/><rect class="cls-3" x="72.4" y="17.89" width="381" height="766" rx="20" ry="20"/><path class="cls-4" d="M319.74,12.32c-10.23.25-20.93,3.34-30.75.27-9.88,2.14-20.18,3.55-29.27-.22-10.83.92-21.65,2-32.52,2.46-19.78.82-39.58.14-59.37.07a21.73,21.73,0,0,0-.21,2.89c0,16.19,17.6,29.31,39.32,29.31H319.29c21.71,0,39.32-13.1,39.32-29.31A21.78,21.78,0,0,0,358,13C345.28,13,332.52,12,319.74,12.32Z"/><path class="cls-5" d="M458,758.23c0,17.37-12.24,31.44-27.38,31.44H94.78c-15.11,0-27.38-14.08-27.38-31.44V43.81c0-17.36,12.24-31.44,27.38-31.44H430.62c15.11,0,27.38,14.08,27.38,31.44Z"/><ellipse class="cls-6" cx="290.9" cy="31.83" rx="3.75" ry="3.44"/><path class="cls-1" d="M592.6,577.41a14.37,14.37,0,0,0-5.84-8.79l-10-10.62h0L490.19,323.31c-4-19.08-24.06-31.17-44.6-26.87s-34.08,23.42-30.09,42.5l25.25,129.51-10.67,15.06c-.74,2.5-1.48,5-2.19,7.48-.68,16.82-1.64,33.63-2.28,50.46-.92,24.23-.87,48.5,2,72.61,2.72,22.52,8.07,44.48,14.51,66.2,8.19,27.6,17.88,55.4,23.68,83.8L786,957C830.3,990.62,593.4,581.19,592.6,577.41Z"/><path class="cls-1" d="M24.36,397.93a39.41,39.41,0,0,0,22.91,43.54l33,13.36c16.5,6.67,33-2,36.83-19.38l.1-.46a39.4,39.4,0,0,0-22.91-43.54l-33-13.36c-16.49-6.67-33,2-36.83,19.38Z"/><path class="cls-1" d="M21.23,470.19a38.35,38.35,0,0,0,22.56,42.87l32.85,13c16.4,6.49,32.89-2.19,36.83-19.38l.11-.46A38.34,38.34,0,0,0,91,463.34l-32.85-13c-16.39-6.48-32.89,2.2-36.83,19.38Z"/><path class="cls-1" d="M20,541.15A38.35,38.35,0,0,0,42.56,584l32.85,13c16.4,6.49,32.89-2.19,36.83-19.38l.11-.46A38.34,38.34,0,0,0,89.78,534.3l-32.85-13C40.54,514.82,24,523.5,20.1,540.68Z"/><path class="cls-6" d="M279.22,31.83c0,1.69-3,3.05-6.63,3.05H253.64c-3.66,0-6.63-1.37-6.63-3h0c0-1.69,3-3,6.63-3h19c3.66,0,6.63,1.37,6.63,3Z"/></svg>